<svg version="1.1" xmlns="http://www.w3.org/2000/svg" width="163" height="30">
<path d="M0 0 C1.29349365 0.00523682 2.5869873 0.01047363 3.91967773 0.01586914 C4.9496714 0.01799156 4.9496714 0.01799156 6.00047302 0.02015686 C8.20144949 0.0257706 10.40232557 0.03832532 12.60327148 0.05102539 C14.09220231 0.05603863 15.58113473 0.06060184 17.07006836 0.06469727 C20.72700223 0.07574446 24.38387707 0.09301826 28.04077148 0.11352539 C27.40346217 5.81994012 26.51896447 8.39651006 22.47827148 12.55102539 C21.23883789 13.8484668 21.23883789 13.8484668 19.97436523 15.17211914 C19.3362793 15.8127832 18.69819336 16.45344727 18.04077148 17.11352539 C21.01077148 17.44352539 23.98077148 17.77352539 27.04077148 18.11352539 C27.37077148 20.09352539 27.70077148 22.07352539 28.04077148 24.11352539 C23.80493578 24.1382186 19.56913806 24.1563821 15.33325195 24.16845703 C13.89183828 24.17349013 12.45042972 24.18031712 11.0090332 24.18896484 C8.93887063 24.20107522 6.86877548 24.20676387 4.79858398 24.21118164 C3.55222168 24.21641846 2.30585937 24.22165527 1.02172852 24.22705078 C-1.95922852 24.11352539 -1.95922852 24.11352539 -3.95922852 23.11352539 C-3.95922852 18.49352539 -3.95922852 13.87352539 -3.95922852 9.11352539 C-2.45489258 9.05293945 -0.95055664 8.99235352 0.59936523 8.92993164 C2.55901138 8.84554496 4.51864624 8.76089604 6.47827148 8.67602539 C7.47149414 8.63670898 8.4647168 8.59739258 9.48803711 8.55688477 C10.90439453 8.49404297 10.90439453 8.49404297 12.34936523 8.42993164 C13.22391357 8.39327393 14.09846191 8.35661621 14.99951172 8.31884766 C17.03351168 8.33171473 17.03351168 8.33171473 18.04077148 7.11352539 C13.38539793 6.19260258 8.89391715 5.99146542 4.16577148 6.05102539 C3.47741211 6.05553711 2.78905273 6.06004883 2.07983398 6.06469727 C0.40010813 6.07636203 -1.27957227 6.09429269 -2.95922852 6.11352539 C-3.34141619 4.45737882 -3.67317953 2.78895515 -3.95922852 1.11352539 C-2.95922852 0.11352539 -2.95922852 0.11352539 0 0 Z M1.04077148 15.11352539 C1.04077148 16.10352539 1.04077148 17.09352539 1.04077148 18.11352539 C2.31952148 18.17540039 3.59827148 18.23727539 4.91577148 18.30102539 C5.63506836 18.33583008 6.35436523 18.37063477 7.09545898 18.40649414 C7.73741211 18.30981445 8.37936523 18.21313477 9.04077148 18.11352539 C9.70077148 17.12352539 10.36077148 16.13352539 11.04077148 15.11352539 C7.74077148 15.11352539 4.44077148 15.11352539 1.04077148 15.11352539 Z " fill="#003BA8" transform="translate(3.959228515625,2.886474609375)"/>
<path d="M0 0 C6.6 0 13.2 0 20 0 C15 6 15 6 12.32421875 6.5859375 C11.01904297 6.48152344 11.01904297 6.48152344 9.6875 6.375 C8.80449219 6.32085938 7.92148438 6.26671875 7.01171875 6.2109375 C6.34785156 6.14132813 5.68398437 6.07171875 5 6 C5 6.99 5 7.98 5 9 C7.31 9 9.62 9 12 9 C9.125 13.875 9.125 13.875 8 15 C2.47058824 15.23529412 2.47058824 15.23529412 0 14 C0 9.38 0 4.76 0 0 Z " fill="#19191B" transform="translate(0,12)"/>
<path d="M0 0 C1.65 0 3.3 0 5 0 C5.66 1.65 6.32 3.3 7 5 C7.66 3.35 8.32 1.7 9 0 C10.65 0 12.3 0 14 0 C13.02567877 2.98077372 12.04473557 5.95932578 11.0625 8.9375 C10.78470703 9.78763672 10.50691406 10.63777344 10.22070312 11.51367188 C9.95322266 12.32255859 9.68574219 13.13144531 9.41015625 13.96484375 C9.04096069 15.08814087 9.04096069 15.08814087 8.66430664 16.23413086 C8 18 8 18 7 19 C5.00041636 19.04080783 2.99954746 19.04254356 1 19 C1 17.68 1 16.36 1 15 C1.99 15 2.98 15 4 15 C3.566875 13.75283203 3.566875 13.75283203 3.125 12.48046875 C2.75375 11.39378906 2.3825 10.30710937 2 9.1875 C1.62875 8.10855469 1.2575 7.02960937 0.875 5.91796875 C0 3 0 3 0 0 Z " fill="#19191B" transform="translate(65,8)"/>
<path d="M0 0 C7.38804781 -0.36334661 7.38804781 -0.36334661 10 1.1875 C11.30894168 3.55995679 11.21620175 5.3335118 11 8 C9.35 8.33 7.7 8.66 6 9 C7.65 9 9.3 9 11 9 C9.125 12.875 9.125 12.875 8 14 C1.73298429 14.46422339 1.73298429 14.46422339 -0.875 12.8125 C-2.36816938 10.40683822 -2.8675026 8.84869415 -3 6 C-1.5625 2.6875 -1.5625 2.6875 0 0 Z M3 3 C2.67 3.66 2.34 4.32 2 5 C3.32 4.67 4.64 4.34 6 4 C5.01 3.67 4.02 3.34 3 3 Z " fill="#19191B" transform="translate(40,8)"/>
<path d="M0 0 C1.9375 1.1875 1.9375 1.1875 3 3 C3.1875 5.6875 3.1875 5.6875 3 8 C1.35 8.33 -0.3 8.66 -2 9 C-0.35 9 1.3 9 3 9 C1.125 12.875 1.125 12.875 0 14 C-6.12145749 14.4534413 -6.12145749 14.4534413 -8.9375 13 C-10.65886567 9.75978228 -10.52960415 6.58042244 -10 3 C-7.83160257 -1.08168929 -4.19435544 -0.44939523 0 0 Z M-5 3 C-5 3.66 -5 4.32 -5 5 C-4.01 5 -3.02 5 -2 5 C-2 4.34 -2 3.68 -2 3 C-2.99 3 -3.98 3 -5 3 Z " fill="#19191B" transform="translate(159,8)"/>
<path d="M0 0 C2.4309584 1.53960699 2.88437865 2.66202991 3.8125 5.375 C4.03520387 8.49285425 3.45048685 10.25170913 2 13 C-1.04983996 14.52491998 -3.6423369 14.23562548 -7 14 C-8.9375 13 -8.9375 13 -10 11 C-10.52960415 7.41957756 -10.65886567 4.24021772 -8.9375 1 C-5.86784865 -0.58433618 -3.38318857 -0.36248449 0 0 Z M-4 3 C-4.66 3.66 -5.32 4.32 -6 5 C-5.67958603 7.60280568 -5.67958603 7.60280568 -5 10 C-3.68 9.67 -2.36 9.34 -1 9 C-1.34444881 6.52733235 -1.34444881 6.52733235 -2 4 C-2.66 3.67 -3.32 3.34 -4 3 Z " fill="#18181A" transform="translate(104,8)"/>
<path d="M0 0 C2.01822917 0.06510417 4.03645833 0.13020833 6.0546875 0.1953125 C6.7146875 1.5153125 7.3746875 2.8353125 8.0546875 4.1953125 C6.0746875 4.1953125 4.0946875 4.1953125 2.0546875 4.1953125 C2.8590625 4.5046875 3.6634375 4.8140625 4.4921875 5.1328125 C7.0546875 6.1953125 7.0546875 6.1953125 8.0546875 7.1953125 C8.2421875 9.6328125 8.2421875 9.6328125 8.0546875 12.1953125 C6.0546875 14.1953125 6.0546875 14.1953125 4.1796875 14.4609375 C3.4784375 14.45578125 2.7771875 14.450625 2.0546875 14.4453125 C1.3534375 14.45046875 0.6521875 14.455625 -0.0703125 14.4609375 C-1.9453125 14.1953125 -1.9453125 14.1953125 -3.9453125 12.1953125 C-3.9453125 11.2053125 -3.9453125 10.2153125 -3.9453125 9.1953125 C0.8046875 10.0703125 0.8046875 10.0703125 3.0546875 11.1953125 C3.0546875 10.5353125 3.0546875 9.8753125 3.0546875 9.1953125 C1.0746875 8.5353125 -0.9053125 7.8753125 -2.9453125 7.1953125 C-3.5703125 4.8203125 -3.5703125 4.8203125 -3.9453125 2.1953125 C-1.9453125 0.1953125 -1.9453125 0.1953125 0 0 Z " fill="#19191C" transform="translate(138.9453125,7.8046875)"/>
<path d="M0 0 C1.32 0 2.64 0 4 0 C4 3.3 4 6.6 4 10 C4.99 10 5.98 10 7 10 C7.33 6.7 7.66 3.4 8 0 C9.32 0 10.64 0 12 0 C12 4.62 12 9.24 12 14 C3.50390625 14.09765625 3.50390625 14.09765625 1 14 C0 13 0 13 -0.09765625 10.05859375 C-0.08605469 8.86363281 -0.07445313 7.66867187 -0.0625 6.4375 C-0.05347656 5.23996094 -0.04445313 4.04242188 -0.03515625 2.80859375 C-0.02355469 1.88175781 -0.01195313 0.95492188 0 0 Z " fill="#19191C" transform="translate(110,8)"/>
<path d="M0 0 C3.96 0 7.92 0 12 0 C10.9957244 5.02137798 10.60239038 5.86243419 7 9 C8.65 9.33 10.3 9.66 12 10 C12 11.32 12 12.64 12 14 C8.04 14 4.08 14 0 14 C0.89570311 9.52148447 1.25000973 8.22824944 4 5 C2.68 4.67 1.36 4.34 0 4 C0 2.68 0 1.36 0 0 Z " fill="#19191B" transform="translate(52,8)"/>
<path d="M0 0 C2 2 2 2 2 5 C-0.31 4.67 -2.62 4.34 -5 4 C-5.33 5.98 -5.66 7.96 -6 10 C-3.36 9.67 -0.72 9.34 2 9 C1.625 10.9375 1.625 10.9375 1 13 C-2.0832635 14.54163175 -4.60878099 14.29747535 -8 14 C-10.63769276 11.78774156 -10.94923246 10.40614032 -11.375 7 C-10.43432922 -0.52536628 -6.6985153 -0.63795384 0 0 Z " fill="#19191B" transform="translate(90,8)"/>
<path d="M0 0 C2.97 0 5.94 0 9 0 C9 1.32 9 2.64 9 4 C8.01 4.33 7.02 4.66 6 5 C5.67 7.97 5.34 10.94 5 14 C3.35 14 1.7 14 0 14 C0 9.38 0 4.76 0 0 Z " fill="#19191B" transform="translate(125,8)"/>
<path d="M0 0 C1.65322266 0.01740234 1.65322266 0.01740234 3.33984375 0.03515625 C4.99693359 0.04869141 4.99693359 0.04869141 6.6875 0.0625 C7.54214844 0.07410156 8.39679687 0.08570313 9.27734375 0.09765625 C10.26734375 2.07765625 11.25734375 4.05765625 12.27734375 6.09765625 C7.32734375 6.09765625 2.37734375 6.09765625 -2.72265625 6.09765625 C-3.05265625 4.44765625 -3.38265625 2.79765625 -3.72265625 1.09765625 C-2.72265625 0.09765625 -2.72265625 0.09765625 0 0 Z " fill="#19191B" transform="translate(3.72265625,2.90234375)"/>
</svg>